<?xml version="1.0" ?>

<!-- Uploaded to: SVG Repo, www.svgrepo.com, Generator: SVG Repo Mixer Tools -->
<svg fill="#000000" width="800px" height="800px" viewBox="0 0 512 512" version="1.1" xml:space="preserve" xmlns="http://www.w3.org/2000/svg" xmlns:xlink="http://www.w3.org/1999/xlink">

<g id="Drill">

<g id="XMLID_1044_">

<polygon id="XMLID_1045_" points="71.6,418 126.798,418 130.852,395 75.654,395   "/>

<polygon id="XMLID_1056_" points="79.17,376 134.369,376 155.61,255 100.41,255   "/>

<path d="M92.052,235H93V94H75.888c-39.07,0-70.856,31.43-70.856,70.5c0,39.071,31.786,70.5,70.856,70.5H92.052z" id="XMLID_1057_"/>

<path d="M166.047,311h38.075c9.955,0,17.878-8.406,17.878-18.362V255h-46.158L166.047,311z" id="XMLID_1058_"/>

<polygon id="XMLID_1059_" points="339,192 363,192 363,180.569 363,137.465 363,125 339,125   "/>

<polygon id="XMLID_1060_" points="383,147 383,170 495.379,170 506.968,147   "/>

<path d="M113,235h54.484H319v-32.879v-86.207V94H113V235z M167.423,127h86.675c5.502,0,9.963,4.498,9.963,10    s-4.461,10-9.963,10h-86.675c-5.502,0-9.963-4.498-9.963-10S161.921,127,167.423,127z M167.423,181h86.675    c5.502,0,9.963,4.498,9.963,10s-4.461,10-9.963,10h-86.675c-5.502,0-9.963-4.498-9.963-10S161.921,181,167.423,181z" id="XMLID_1063_"/>

</g>

</g>

<g id="Layer_1"/>

</svg>